<svg width="41" height="18" viewBox="0 0 41 18" fill="none" xmlns="http://www.w3.org/2000/svg">
<path opacity="0.5" d="M7.45809 0.421929C7.72385 0.148131 8.0798 -0.00336935 8.44926 5.43748e-05C8.81872 0.0034781 9.17214 0.161557 9.4334 0.44024C9.69466 0.718923 9.84285 1.09591 9.84606 1.49002C9.84927 1.88412 9.70725 2.2638 9.45057 2.54728L4.81038 7.49692L39.5909 7.49693C39.9646 7.49693 40.323 7.65528 40.5873 7.93717C40.8515 8.21905 41 8.60136 41 9C41 9.39865 40.8515 9.78096 40.5873 10.0628C40.323 10.3447 39.9646 10.5031 39.5909 10.5031L4.81038 10.5031L9.45057 15.4527C9.70725 15.7362 9.84927 16.1159 9.84606 16.51C9.84285 16.9041 9.69466 17.2811 9.4334 17.5598C9.17214 17.8384 8.81872 17.9965 8.44926 17.9999C8.0798 18.0034 7.72385 17.8519 7.45809 17.5781L0.412568 10.0627C0.1484 9.7808 7.51961e-07 9.39856 7.86805e-07 9C8.21648e-07 8.60143 0.1484 8.21919 0.412568 7.93732L7.45809 0.421929Z" fill="white"/>
</svg>
