<svg width="26" height="26" viewBox="0 0 26 26" fill="none" xmlns="http://www.w3.org/2000/svg">
<path d="M18.1367 16.68L17.4788 17.3726C17.4788 17.3726 15.915 19.019 11.6467 14.5252C7.37839 10.0314 8.94211 8.38511 8.94211 8.38511L9.35641 7.94894C10.377 6.87446 10.4732 5.1494 9.58278 3.89004L7.76136 1.31388C6.65928 -0.244833 4.52971 -0.450739 3.26653 0.879147L0.999335 3.26609C0.372996 3.92551 -0.0467303 4.78032 0.00417184 5.72858C0.134388 8.15456 1.17102 13.3741 6.95551 19.4642C13.0897 25.9223 18.8454 26.179 21.1991 25.9467C21.9435 25.8732 22.5909 25.4718 23.1127 24.9225L25.1647 22.7621C26.5497 21.304 26.1592 18.8041 24.387 17.784L21.6274 16.1956C20.4637 15.5258 19.0461 15.7225 18.1367 16.68Z" fill="white"/>
</svg>
