<svg width="71" height="18" viewBox="0 0 71 18" fill="none" xmlns="http://www.w3.org/2000/svg">
<path d="M63.5419 17.5781C63.2762 17.8519 62.9202 18.0034 62.5507 17.9999C62.1813 17.9965 61.8279 17.8384 61.5666 17.5598C61.3053 17.2811 61.1572 16.9041 61.1539 16.51C61.1507 16.1159 61.2928 15.7362 61.5494 15.4527L66.1896 10.5031H1.4091C1.03539 10.5031 0.676975 10.3447 0.412717 10.0628C0.148459 9.78095 0 9.39864 0 9C0 8.60136 0.148459 8.21904 0.412717 7.93716C0.676975 7.65528 1.03539 7.49692 1.4091 7.49692H66.1896L61.5494 2.54728C61.2928 2.2638 61.1507 1.88412 61.1539 1.49002C61.1572 1.09592 61.3053 0.718925 61.5666 0.440242C61.8279 0.161559 62.1813 0.00348146 62.5507 5.68201e-05C62.9202 -0.00336782 63.2762 0.148135 63.5419 0.421932L70.5874 7.93732C70.8516 8.21919 71 8.60144 71 9C71 9.39856 70.8516 9.78081 70.5874 10.0627L63.5419 17.5781Z" fill="white"/>
</svg>
